<svg width="617" height="432" viewBox="0 0 617 432" fill="none" xmlns="http://www.w3.org/2000/svg">
<path d="M234.867 378.864L239.174 305.671L231.869 301.906L202.993 347.451L207.176 359.486L234.867 378.864Z" fill="white" stroke="#505BAF" stroke-linecap="round" stroke-linejoin="round"/>
<path d="M221.565 267.482L225.18 265.853L229.141 277.603L209.04 283.367L206.066 273.246L221.565 267.482Z" fill="#92F2AA" stroke="#505BAF" stroke-linecap="round" stroke-linejoin="round"/>
<path d="M125.658 253.473L143.847 250.251L154.299 280.726L135.333 285.762L125.658 253.473Z" fill="#92F2AA" stroke="#505BAF" stroke-linecap="round" stroke-linejoin="round"/>
<path d="M162.777 307.831L188.605 283.071C188.605 283.071 206.892 264.779 227.34 276.616C227.34 276.616 241.321 281.997 239.174 305.671L231.634 340.12C231.634 340.12 229.487 358.412 206.892 359.486C206.892 359.486 196.132 359.486 186.445 349.797L155.237 325.111C155.237 325.111 134.802 310.04 130.557 310.04C130.557 310.04 132.704 307.893 138.085 306.819L136.974 293.834L139.121 292.76L136.974 285.231L147.735 283.071C147.735 283.071 144.501 271.234 147.735 269.087C147.735 269.087 149.882 269.087 153.115 277.727L159.569 293.871L162.777 307.831Z" fill="white" stroke="#505BAF" stroke-linecap="round" stroke-linejoin="round"/>
<path d="M193.972 290.613L179.991 313.212" stroke="#505BAF" stroke-linecap="round" stroke-linejoin="round"/>
<path d="M214.42 326.123L167.084 308.905L161.703 329.357" stroke="#505BAF" stroke-linecap="round" stroke-linejoin="round"/>
<path d="M156.496 326.049L162.777 307.831L167.084 308.905" stroke="#505BAF" stroke-linecap="round" stroke-linejoin="round"/>
<path d="M209.04 294.908L200.982 321.235" stroke="#505BAF" stroke-linecap="round" stroke-linejoin="round"/>
<path d="M130.495 309.979C136.949 304.597 148.759 307.831 148.759 307.831L160.617 312.139" stroke="#505BAF" stroke-linecap="round" stroke-linejoin="round"/>
<path d="M159.544 293.834H137.85" stroke="#505BAF" stroke-linecap="round" stroke-linejoin="round"/>
<path d="M53.025 378.864L58.8618 409.018H186.519L144.477 365.941L53.025 378.864Z" fill="white" stroke="#505BAF" stroke-linecap="round" stroke-linejoin="round"/>
<path d="M77.7419 398.23L101.311 326.049C101.311 326.049 105.865 304.72 132.161 309.497L155.225 325.049L192.886 355.178C192.886 355.178 199.92 360.56 207.164 359.486L234.867 378.926V382.48C234.896 387.492 233.4 392.395 230.576 396.535C227.752 400.676 223.736 403.859 219.06 405.66C213.729 407.672 206.646 409.055 197.205 409.055H186.445L130.495 354.166L113.219 399.378L77.7419 398.23Z" fill="white" stroke="#505BAF" stroke-linecap="round" stroke-linejoin="round"/>
<path d="M117.23 388.368H79.9385C79.9385 388.368 70.5972 410.943 53.8888 416.189L112.208 416.25L117.23 388.368Z" fill="#505BAF"/>
<path d="M59.3431 410.067L52.8029 378.259C52.8029 378.259 29.0607 374.853 20.978 361.646L31.1585 411.375L59.3431 410.067Z" fill="#505BAF"/>
<path d="M189.296 234.416L186.988 251.696C186.988 251.696 186.457 266.655 200.982 265.717L200.377 275.357L223.033 266.914L218.727 256.151L223.033 240.883L220.886 234.416H189.296Z" fill="white" stroke="#505BAF" stroke-linecap="round" stroke-linejoin="round"/>
<path d="M189.814 239.575C189.136 239.866 188.382 239.927 187.667 239.748C185.52 239.205 181.126 237.736 183.459 235.02C183.459 235.02 182.583 234.033 187.358 232.465C187.358 232.465 181.953 229.355 182.188 225.652C182.188 225.652 183.422 220.542 190.702 224.776C191.261 225.105 191.895 225.285 192.544 225.298C193.192 225.311 193.833 225.156 194.404 224.85C195.83 223.958 196.9 222.596 197.428 220.999C197.428 220.999 199.427 217.296 202.29 217.037C202.29 217.037 205.375 217.037 208.78 220.394C208.78 220.394 212.186 223.739 215.16 221.135C215.16 221.135 216.197 219.419 219.923 219.604C219.923 219.604 223.625 219.789 224.156 226.319C224.156 226.319 224.798 230.997 228.401 233.07C229.419 233.399 230.304 234.05 230.92 234.924C231.537 235.799 231.852 236.851 231.819 237.921C231.819 237.921 232.634 239.834 227.87 241.402L223.045 243.87C222.545 244.097 222.003 244.22 221.454 244.232C220.904 244.244 220.358 244.145 219.847 243.941C219.337 243.737 218.873 243.432 218.483 243.045C218.093 242.657 217.786 242.195 217.579 241.685L216.505 237.143C212.301 237.875 207.982 237.557 203.931 236.218C203.931 236.218 200.833 233.008 198.106 235.749C197.315 236.121 196.451 236.313 195.577 236.313C194.702 236.313 193.838 236.121 193.047 235.749C193.047 235.749 193.442 237.983 189.814 239.575Z" fill="#505BAF"/>
<path d="M161.037 330.171L156.348 326.185L162.271 307.954L168.441 309.189L161.037 330.171Z" fill="#92F2AA" stroke="#505BAF" stroke-linecap="round" stroke-linejoin="round"/>
<path d="M161.037 301.783L137.591 300.549V294.377H159.803L161.037 301.783Z" fill="#92F2AA" stroke="#505BAF" stroke-linecap="round" stroke-linejoin="round"/>
<path d="M365.289 19.7486H325.369V75.2297H365.289V19.7486Z" fill="white" stroke="#505BAF" stroke-linecap="round" stroke-linejoin="round"/>
<path d="M361.772 77.9698C366.065 77.9698 369.546 74.4884 369.546 70.1938C369.546 65.8993 366.065 62.4178 361.772 62.4178C357.478 62.4178 353.998 65.8993 353.998 70.1938C353.998 74.4884 357.478 77.9698 361.772 77.9698Z" fill="#505BAF"/>
<path d="M358.317 70.1938L361.488 73.0697L366.806 67.0217" stroke="white" stroke-width="2" stroke-miterlimit="10"/>
<path d="M330.329 30.9682H348.889" stroke="#505BAF" stroke-linecap="round" stroke-linejoin="round"/>
<path d="M330.329 65.0469H348.889" stroke="#505BAF" stroke-linecap="round" stroke-linejoin="round"/>
<path d="M330.329 60.2949H358.317" stroke="#505BAF" stroke-linecap="round" stroke-linejoin="round"/>
<path d="M330.329 55.5305H358.317" stroke="#505BAF" stroke-linecap="round" stroke-linejoin="round"/>
<path d="M330.329 49.9886H358.317" stroke="#505BAF" stroke-linecap="round" stroke-linejoin="round"/>
<path d="M330.329 45.2366H358.317" stroke="#505BAF" stroke-linecap="round" stroke-linejoin="round"/>
<path d="M330.329 40.4846H358.317" stroke="#505BAF" stroke-linecap="round" stroke-linejoin="round"/>
<path d="M330.329 35.7326H358.317" stroke="#505BAF" stroke-linecap="round" stroke-linejoin="round"/>
<path d="M509.926 74.5385C505.268 74.5418 500.801 76.395 497.508 79.6908C494.216 82.9867 492.366 87.4554 492.366 92.1147C492.367 94.602 492.901 97.0601 493.933 99.323L490.885 102.446V106.864L487.492 106.013L483.074 109.925L483.58 115.702L478.138 114.789L474.917 117.85L476.151 121.75L472.585 119.541L470.154 121.861V128.032L478.483 129.909L502.374 108C504.753 109.137 507.357 109.723 509.993 109.716C512.63 109.708 515.231 109.107 517.603 107.956C519.975 106.806 522.058 105.136 523.697 103.071C525.336 101.005 526.489 98.597 527.071 96.0249C527.652 93.4527 527.647 90.7827 527.056 88.2128C526.464 85.6429 525.302 83.2392 523.655 81.1799C522.008 79.1207 519.919 77.4589 517.542 76.3177C515.165 75.1765 512.562 74.5853 509.926 74.5879V74.5385ZM514.775 91.2631C513.816 91.2655 512.878 90.9834 512.079 90.4524C511.28 89.9215 510.657 89.1655 510.287 88.28C509.918 87.3946 509.82 86.4196 510.004 85.4781C510.189 84.5367 510.649 83.6712 511.325 82.9911C512.002 82.311 512.865 81.8468 513.805 81.6572C514.745 81.4677 515.72 81.5613 516.608 81.9261C517.495 82.291 518.254 82.9108 518.789 83.7072C519.323 84.5035 519.61 85.4406 519.613 86.4C519.614 87.037 519.49 87.6681 519.248 88.2572C519.006 88.8464 518.65 89.382 518.201 89.8336C517.752 90.2852 517.218 90.6439 516.63 90.8891C516.043 91.1344 515.412 91.2615 514.775 91.2631Z" fill="#92F2AA" stroke="#505BAF" stroke-linecap="round" stroke-linejoin="round"/>
<path d="M487.134 186.019L491.885 221.283H546.008L548.476 186.019H487.134Z" fill="white" stroke="#505BAF" stroke-linecap="round" stroke-linejoin="round"/>
<path d="M490.651 184.081H509.161L505.286 178.971H491.539L490.651 184.081Z" fill="white" stroke="#505BAF" stroke-linecap="round" stroke-linejoin="round"/>
<path d="M211.236 69.5767C211.468 68.7278 211.588 67.8523 211.594 66.9723C211.599 64.455 210.642 62.0309 208.92 60.1956C207.197 58.3602 204.839 57.2522 202.327 57.0981C201.549 54.1537 199.759 51.5777 197.271 49.8229C194.782 48.0681 191.755 47.2467 188.721 47.5031C185.687 47.7596 182.841 49.0774 180.683 51.225C178.524 53.3727 177.191 56.2126 176.919 59.2457C175.527 57.9048 173.772 57.0019 171.872 56.6489C169.972 56.296 168.011 56.5085 166.23 57.2603C164.45 58.012 162.93 59.2697 161.857 60.8777C160.785 62.4856 160.208 64.373 160.198 66.3058C160.194 67.1393 160.302 67.9696 160.519 68.7744C158.805 69.0666 157.265 69.994 156.205 71.3715C155.145 72.749 154.642 74.4756 154.798 76.2071C154.953 77.9386 155.756 79.5479 157.045 80.7141C158.334 81.8803 160.015 82.5178 161.753 82.4996H207.67C209.179 82.4994 210.646 82.0053 211.847 81.0927C213.049 80.1802 213.919 78.8994 214.325 77.4459C214.73 75.9924 214.649 74.446 214.094 73.0429C213.538 71.6399 212.539 70.4572 211.249 69.6754L211.236 69.5767ZM179.72 68.5646H179.621C179.621 68.5646 179.621 68.5646 179.621 68.4782L179.72 68.5646Z" fill="#92F2AA" stroke="#505BAF" stroke-linecap="round" stroke-linejoin="round"/>
<path d="M452.841 253.374H518.749V223.122" stroke="#1E1E5B" stroke-miterlimit="10" stroke-dasharray="4 4"/>
<path d="M438.65 177.219H253.55C246.053 177.219 239.976 183.297 239.976 190.796V375.939C239.976 383.437 246.053 389.516 253.55 389.516H438.65C446.147 389.516 452.224 383.437 452.224 375.939V190.796C452.224 183.297 446.147 177.219 438.65 177.219Z" fill="#92F2AA" stroke="#505BAF" stroke-linecap="round" stroke-linejoin="round"/>
<path d="M412.711 203.163H279.489C271.992 203.163 265.915 209.242 265.915 216.741V349.994C265.915 357.493 271.992 363.571 279.489 363.571H412.711C420.208 363.571 426.285 357.493 426.285 349.994V216.741C426.285 209.242 420.208 203.163 412.711 203.163Z" fill="white" stroke="#505BAF" stroke-linecap="round" stroke-linejoin="round"/>
<path d="M257.264 389.516V402.377C257.264 402.377 257.264 402.451 257.264 402.575C257.353 404.151 258.042 405.633 259.189 406.717C260.337 407.8 261.856 408.403 263.434 408.4H278.44C278.44 408.4 282.376 408.4 287.078 403.685L299.652 389.528L257.264 389.516Z" fill="#505BAF"/>
<path d="M439.637 389.516V402.562C439.549 404.138 438.86 405.621 437.712 406.704C436.565 407.788 435.045 408.391 433.467 408.388H418.412C418.412 408.388 414.488 408.388 409.774 403.673L397.188 389.516H439.637Z" fill="#505BAF"/>
<path d="M317.903 312.176L323.172 308.473C326.246 311.87 330.008 314.575 334.207 316.407C338.407 318.239 342.948 319.156 347.529 319.098C352.11 319.04 356.626 318.007 360.777 316.069C364.929 314.13 368.62 311.331 371.607 307.856L377.777 312.237C378.307 312.615 378.907 312.884 379.542 313.03C380.177 313.176 380.834 313.195 381.477 313.087C382.119 312.979 382.733 312.745 383.285 312.399C383.837 312.053 384.316 311.602 384.693 311.071C385.071 310.54 385.34 309.94 385.486 309.305C385.632 308.67 385.651 308.013 385.543 307.37C385.434 306.728 385.201 306.113 384.855 305.561C384.509 305.009 384.058 304.53 383.527 304.153L376.95 299.462C378.997 294.797 379.938 289.721 379.7 284.632C379.462 279.542 378.05 274.577 375.576 270.123C373.102 265.669 369.632 261.848 365.437 258.958C361.242 256.067 356.436 254.186 351.394 253.461V248.918C351.394 247.609 350.874 246.353 349.948 245.427C349.022 244.501 347.767 243.981 346.458 243.981C345.149 243.981 343.893 244.501 342.968 245.427C342.042 246.353 341.522 247.609 341.522 248.918V253.683C336.564 254.617 331.886 256.674 327.845 259.697C323.805 262.719 320.51 266.626 318.212 271.118C315.915 275.611 314.676 280.57 314.59 285.616C314.504 290.661 315.574 295.66 317.718 300.228L312.202 304.091C311.13 304.855 310.406 306.014 310.188 307.313C309.971 308.611 310.278 309.943 311.042 311.015C311.806 312.087 312.965 312.812 314.263 313.03C315.561 313.247 316.893 312.94 317.965 312.176H317.903ZM347.112 317.619C342.827 317.615 338.59 316.721 334.669 314.994C330.747 313.267 327.227 310.743 324.332 307.584L336.919 298.611C339.804 301.018 343.495 302.239 347.246 302.026C350.997 301.813 354.526 300.182 357.12 297.463L370.447 306.967C367.545 310.308 363.96 312.987 359.935 314.825C355.909 316.662 351.537 317.615 347.112 317.619ZM378.295 286.07C378.298 290.363 377.433 294.612 375.753 298.561L361.241 288.206C361.241 287.848 361.241 287.502 361.241 287.144C361.253 284.072 360.309 281.071 358.54 278.559C356.772 276.047 354.265 274.147 351.369 273.123V254.831C358.866 255.922 365.717 259.682 370.664 265.421C375.611 271.161 378.32 278.493 378.295 286.07ZM315.929 286.07C315.908 278.739 318.446 271.63 323.105 265.97C327.763 260.31 334.251 256.453 341.448 255.065V273.123C338.552 274.147 336.045 276.047 334.277 278.559C332.508 281.071 331.564 284.072 331.576 287.144C331.576 288.122 331.671 289.098 331.86 290.057L318.878 299.327C316.94 295.175 315.926 290.652 315.904 286.07H315.929Z" fill="#505BAF"/>
<path d="M14.5488 409.388H601.316" stroke="#505BAF" stroke-miterlimit="10"/>
<path d="M556.09 388.257L550.648 409.24H532.249L526.819 388.257C526.819 388.257 521.883 386.689 522.624 382.801C522.891 382.09 523.308 381.443 523.847 380.907C524.385 380.37 525.033 379.955 525.746 379.691H556.09C557.167 379.922 558.136 380.507 558.843 381.352C559.549 382.197 559.953 383.255 559.989 384.357C560.001 384.872 559.908 385.384 559.716 385.863C559.525 386.342 559.238 386.776 558.873 387.141C558.509 387.505 558.074 387.792 557.596 387.984C557.117 388.176 556.605 388.269 556.09 388.257Z" fill="white" stroke="#505BAF" stroke-linecap="round" stroke-linejoin="round"/>
<path d="M540.492 379.691C540.492 379.691 538.16 369.57 531.151 364.114C531.151 364.114 527.794 356.709 524.82 354.437C524.366 354.09 523.933 353.715 523.524 353.314C521.192 350.957 512.418 343.613 498.462 350.846C496.63 351.902 495.103 353.416 494.032 355.24C493.021 356.962 492.416 358.893 492.264 360.884C492.112 362.876 492.417 364.876 493.155 366.732C493.893 368.588 495.044 370.251 496.522 371.594C498 372.937 499.765 373.925 501.683 374.482C505.206 375.385 508.877 375.553 512.468 374.976C513.621 374.946 514.77 374.809 515.898 374.569C518.277 374.061 520.509 373.018 522.426 371.52C524.536 369.928 528.596 367.2 531.928 367.2C531.928 367.2 538.579 374.198 538.752 379.654L540.492 379.691Z" fill="#92F2AA" stroke="#505BAF" stroke-linecap="round" stroke-linejoin="round"/>
<path d="M542.861 379.691C542.861 379.691 541.306 367.583 542.861 359.621C542.861 359.621 541.306 352.438 562.321 340.762C562.321 340.762 588.778 332.986 581.782 315.854C581.782 315.854 571.441 297.179 545.477 315.854C545.477 315.854 528.855 327.53 541.306 359.449C541.306 359.449 540.258 374.26 541.171 379.691H542.861Z" fill="#92F2AA" stroke="#505BAF" stroke-linecap="round" stroke-linejoin="round"/>
<path d="M543.639 379.691C543.639 379.691 543.639 363.337 555.312 361.004C555.312 361.004 566.209 353.228 573.995 368.792C573.995 368.792 580.72 381.567 571.046 388.997C569.964 389.872 568.618 390.355 567.227 390.369C565.836 390.382 564.481 389.925 563.383 389.072C562.593 388.385 561.953 387.543 561.502 386.598C561.052 385.653 560.802 384.625 560.767 383.579C560.363 380.572 560.297 377.529 560.569 374.507C560.723 372.659 560.564 370.798 560.1 369.002C559.459 366.533 558.262 363.435 556.09 362.559C556.09 362.559 544.416 364.904 545.194 379.691H543.639Z" fill="#92F2AA" stroke="#505BAF" stroke-linecap="round" stroke-linejoin="round"/>
<path d="M547.921 401.439H534.347" stroke="#505BAF" stroke-linecap="round" stroke-linejoin="round"/>
<path d="M286.313 177.219V70.1938H219.257" stroke="black" stroke-miterlimit="10" stroke-dasharray="4 4"/>
<path d="M406.072 176.503V100.965H480.026" stroke="black" stroke-miterlimit="10" stroke-dasharray="4 4"/>
<path d="M345.779 176.503V80.3397" stroke="black" stroke-miterlimit="10" stroke-dasharray="4 4"/>
<path d="M84.5291 384.48H114.145" stroke="#505BAF" stroke-linecap="round" stroke-linejoin="round"/>
<path d="M57.381 380.777L62.317 405.463" stroke="#505BAF" stroke-linecap="round" stroke-linejoin="round"/>
</svg>
