<svg width="1440" height="1024" viewBox="0 0 1440 1024" fill="none" xmlns="http://www.w3.org/2000/svg">
<g clip-path="url(#clip0_108_272)">
<rect width="1440" height="1024" fill="white"/>
<rect width="1440" height="1024" fill="#1F2320"/>
<g clip-path="url(#clip1_108_272)">
<rect width="1584" height="1024" transform="translate(-72)" fill="#1F2320"/>
<circle cx="-200" cy="559" r="457" fill="#505BAF"/>
<path fill-rule="evenodd" clip-rule="evenodd" d="M1207.75 -240.125C1211.45 -275.276 1218.63 -310.131 1229.28 -344.134L1579.87 -694.723C1613.87 -705.37 1648.72 -712.547 1683.88 -716.254L1207.75 -240.125ZM1372.75 205.888C1387.09 219.441 1402 232.05 1417.39 243.717L2167.72 -506.606C2156.05 -522.002 2143.44 -536.911 2129.89 -551.255L1372.75 205.888ZM1526.78 307.7C1508.11 299.59 1489.81 290.366 1471.98 280.027L2204.03 -452.021C2214.37 -434.188 2223.59 -415.886 2231.7 -397.216L1526.78 307.7ZM1593.76 331.618C1616.11 337.958 1638.8 342.816 1661.66 346.194L2270.19 -262.338C2266.82 -285.2 2261.96 -307.886 2255.62 -330.24L1593.76 331.618ZM1838.21 343.015C1808.01 348.597 1777.43 351.572 1746.81 351.937L2275.94 -177.186C2275.57 -146.573 2272.6 -115.986 2267.01 -85.7854L1838.21 343.015ZM1973.27 298.852C2025.98 273.408 2075.38 238.825 2119.1 195.102C2162.82 151.379 2197.41 101.978 2222.85 49.2719L1973.27 298.852ZM2083.05 -595.306L1328.69 159.045C1315.98 143.803 1304.24 128.021 1293.48 111.781L2035.78 -630.52C2052.02 -619.761 2067.8 -608.023 2083.05 -595.306ZM1260.26 54.104L1978.1 -663.738C1959.19 -673.104 1939.84 -681.285 1920.17 -688.279L1235.72 -3.83257C1242.72 15.8438 1250.9 35.193 1260.26 54.104ZM1215.87 -74.8765C1210.92 -98.863 1207.63 -123.123 1205.99 -147.474L1776.53 -718.011C1800.88 -716.373 1825.14 -713.08 1849.12 -708.13L1215.87 -74.8765Z" fill="#505BAF"/>
<path d="M1296.37 802.539L1576.91 881.295L1368.43 1084.88L1296.37 802.539Z" fill="#505BAF"/>
<path d="M1401.5 896.606L1682.05 975.363L1473.57 1178.95L1401.5 896.606Z" fill="#505BAF"/>
<path d="M1510.6 989.432L1791.15 1068.19L1582.67 1271.77L1510.6 989.432Z" fill="#505BAF"/>
</g>
</g>
<defs>
<clipPath id="clip0_108_272">
<rect width="1440" height="1024" fill="white"/>
</clipPath>
<clipPath id="clip1_108_272">
<rect width="1584" height="1024" fill="white" transform="translate(-72)"/>
</clipPath>
</defs>
</svg>
